<svg width="256" height="256" viewBox="0 0 256 256" fill="none" xmlns="http://www.w3.org/2000/svg">
<g clip-path="url(#clip0_1_2)">
<path d="M208.551 46.4219C187.04 24.8594 158.393 13 127.949 13C65.1094 13 13.9754 64.1339 13.9754 126.973C13.9754 147.047 19.2121 166.658 29.1719 183.96L13 243L73.4263 227.136C90.0603 236.223 108.799 240.998 127.897 240.998H127.949C190.737 240.998 243 189.864 243 127.025C243 96.5804 230.063 67.9844 208.551 46.4219ZM127.949 221.797C110.904 221.797 94.2187 217.228 79.6897 208.603L76.25 206.549L40.4152 215.944L49.9643 180.982L47.7054 177.388C38.2076 162.295 33.2277 144.891 33.2277 126.973C33.2277 74.7612 75.7366 32.2522 128 32.2522C153.31 32.2522 177.08 42.1094 194.946 60.0268C212.812 77.9442 223.799 101.714 223.748 127.025C223.748 179.288 180.161 221.797 127.949 221.797Z" fill="black"/>
<path d="M256 0H0V256H256V0Z" fill="black"/>
<g filter="url(#filter0_d_1_2)">
<path d="M200.846 54.225C181.393 34.725 155.486 24 127.954 24C71.125 24 24.8821 70.2429 24.8821 127.071C24.8821 145.225 29.6179 162.961 38.625 178.607L24 232L78.6464 217.654C93.6893 225.871 110.636 230.189 127.907 230.189H127.954C184.736 230.189 232 183.946 232 127.118C232 99.5857 220.3 73.725 200.846 54.225ZM127.954 212.825C112.539 212.825 97.45 208.693 84.3107 200.893L81.2 199.036L48.7929 207.532L57.4286 175.914L55.3857 172.664C46.7964 159.014 42.2929 143.275 42.2929 127.071C42.2929 79.8536 80.7357 41.4107 128 41.4107C150.889 41.4107 172.386 50.325 188.543 66.5286C204.7 82.7321 214.636 104.229 214.589 127.118C214.589 174.382 175.171 212.825 127.954 212.825Z" fill="url(#paint0_linear_1_2)" shape-rendering="crispEdges"/>
<path d="M200.846 54.225C181.393 34.725 155.486 24 127.954 24C71.125 24 24.8821 70.2429 24.8821 127.071C24.8821 145.225 29.6179 162.961 38.625 178.607L24 232L78.6464 217.654C93.6893 225.871 110.636 230.189 127.907 230.189H127.954C184.736 230.189 232 183.946 232 127.118C232 99.5857 220.3 73.725 200.846 54.225ZM127.954 212.825C112.539 212.825 97.45 208.693 84.3107 200.893L81.2 199.036L48.7929 207.532L57.4286 175.914L55.3857 172.664C46.7964 159.014 42.2929 143.275 42.2929 127.071C42.2929 79.8536 80.7357 41.4107 128 41.4107C150.889 41.4107 172.386 50.325 188.543 66.5286C204.7 82.7321 214.636 104.229 214.589 127.118C214.589 174.382 175.171 212.825 127.954 212.825Z" fill="url(#paint1_linear_1_2)" shape-rendering="crispEdges"/>
<path d="M200.846 54.225C181.393 34.725 155.486 24 127.954 24C71.125 24 24.8821 70.2429 24.8821 127.071C24.8821 145.225 29.6179 162.961 38.625 178.607L24 232L78.6464 217.654C93.6893 225.871 110.636 230.189 127.907 230.189H127.954C184.736 230.189 232 183.946 232 127.118C232 99.5857 220.3 73.725 200.846 54.225ZM127.954 212.825C112.539 212.825 97.45 208.693 84.3107 200.893L81.2 199.036L48.7929 207.532L57.4286 175.914L55.3857 172.664C46.7964 159.014 42.2929 143.275 42.2929 127.071C42.2929 79.8536 80.7357 41.4107 128 41.4107C150.889 41.4107 172.386 50.325 188.543 66.5286C204.7 82.7321 214.636 104.229 214.589 127.118C214.589 174.382 175.171 212.825 127.954 212.825Z" fill="url(#paint2_linear_1_2)" shape-rendering="crispEdges"/>
<path d="M78.6399 217.707C93.6858 225.922 110.634 230.239 127.907 230.239H127.954C184.763 230.239 232.05 183.974 232.05 127.118C232.05 99.5712 220.344 73.6982 200.881 54.1897C181.419 34.6803 155.499 23.95 127.954 23.95C71.0974 23.95 24.8321 70.2153 24.8321 127.071C24.8321 145.227 29.5665 162.965 38.5713 178.614L23.9518 231.987L23.9289 232.07L24.0127 232.048L78.6399 217.707ZM81.1873 198.988L48.8639 207.462L57.4768 175.927L57.4826 175.906L57.4709 175.887L55.428 172.637C46.8438 158.995 42.3429 143.266 42.3429 127.071C42.3429 79.8812 80.7633 41.4607 128 41.4607C150.876 41.4607 172.36 50.3697 188.508 66.5639C204.656 82.7592 214.586 104.244 214.539 127.118C214.539 174.354 175.144 212.775 127.954 212.775C112.548 212.775 97.4678 208.645 84.3363 200.85C84.3363 200.85 84.3363 200.85 84.3362 200.85L81.2256 198.993L81.2076 198.982L81.1873 198.988Z" stroke="black" stroke-width="0.1" shape-rendering="crispEdges"/>
</g>
</g>
<defs>
<filter id="filter0_d_1_2" x="17.8578" y="19.9" width="224.242" height="224.241" filterUnits="userSpaceOnUse" color-interpolation-filters="sRGB">
<feFlood flood-opacity="0" result="BackgroundImageFix"/>
<feColorMatrix in="SourceAlpha" type="matrix" values="0 0 0 0 0 0 0 0 0 0 0 0 0 0 0 0 0 0 127 0" result="hardAlpha"/>
<feOffset dx="2" dy="4"/>
<feGaussianBlur stdDeviation="4"/>
<feComposite in2="hardAlpha" operator="out"/>
<feColorMatrix type="matrix" values="0 0 0 0 0.620833 0 0 0 0 0.620833 0 0 0 0 0.620833 0 0 0 0.25 0"/>
<feBlend mode="normal" in2="BackgroundImageFix" result="effect1_dropShadow_1_2"/>
<feBlend mode="normal" in="SourceGraphic" in2="effect1_dropShadow_1_2" result="shape"/>
</filter>
<linearGradient id="paint0_linear_1_2" x1="128" y1="128" x2="81" y2="171" gradientUnits="userSpaceOnUse">
<stop stop-color="#0057FF"/>
<stop offset="1" stop-opacity="0"/>
</linearGradient>
<linearGradient id="paint1_linear_1_2" x1="-5.5" y1="115" x2="128" y2="131.5" gradientUnits="userSpaceOnUse">
<stop stop-color="#33FF00"/>
<stop offset="1" stop-opacity="0"/>
</linearGradient>
<linearGradient id="paint2_linear_1_2" x1="166.5" y1="224.5" x2="128" y2="128" gradientUnits="userSpaceOnUse">
<stop stop-color="#FF00F5"/>
<stop offset="1" stop-opacity="0"/>
</linearGradient>
<clipPath id="clip0_1_2">
<rect width="256" height="256" fill="white"/>
</clipPath>
</defs>
</svg>
