<svg width="16" height="16" viewBox="0 0 16 16" fill="none" xmlns="http://www.w3.org/2000/svg">
<path d="M12.9031 3.03437C11.5937 1.72187 9.85 1 7.99687 1C4.17187 1 1.05937 4.1125 1.05937 7.9375C1.05937 9.15937 1.37813 10.3531 1.98438 11.4062L1 15L4.67812 14.0344C5.69062 14.5875 6.83125 14.8781 7.99375 14.8781H7.99687C11.8187 14.8781 15 11.7656 15 7.94063C15 6.0875 14.2125 4.34687 12.9031 3.03437ZM7.99687 13.7094C6.95937 13.7094 5.94375 13.4312 5.05937 12.9062L4.85 12.7812L2.66875 13.3531L3.25 11.225L3.1125 11.0063C2.53437 10.0875 2.23125 9.02813 2.23125 7.9375C2.23125 4.75938 4.81875 2.17188 8 2.17188C9.54062 2.17188 10.9875 2.77187 12.075 3.8625C13.1625 4.95312 13.8312 6.4 13.8281 7.94063C13.8281 11.1219 11.175 13.7094 7.99687 13.7094Z" fill="black"/>
<path d="M8 10C9.10457 10 10 9.10457 10 8C10 6.89543 9.10457 6 8 6C6.89543 6 6 6.89543 6 8C6 9.10457 6.89543 10 8 10Z" fill="#3699C5"/>
</svg>
