<?xml version="1.0" encoding="UTF-8"?>
<svg width="16px" height="16px" viewBox="0 0 16 16" version="1.1" xmlns="http://www.w3.org/2000/svg" xmlns:xlink="http://www.w3.org/1999/xlink">
    <title>pin</title>
    <g id="pin" stroke="none" stroke-width="1" fill="none" fill-rule="evenodd">
        <g id="thumbtack-solid" transform="translate(3.000000, 1.000000)" fill="#000000" fill-rule="nonzero">
            <path d="M8.53723818,5.85885612 L8.18675733,2.62499679 L9.39580887,2.62499679 C9.7755084,2.62499679 10.0833071,2.33118856 10.0833071,1.96874759 L10.0833071,0.656249198 C10.0833071,0.293808235 9.7755084,8.8817842e-15 9.39580887,8.8817842e-15 L1.60416249,8.8817842e-15 C1.22446296,8.8817842e-15 0.91666428,0.293808235 0.91666428,0.656249198 L0.91666428,1.96874759 C0.91666428,2.33118856 1.22446296,2.62499679 1.60416249,2.62499679 L2.81321403,2.62499679 L2.46273317,5.85885612 C1.07321335,6.47553896 0,7.5813462 0,8.96873903 C0,9.33118 0.307798678,9.62498823 0.68749821,9.62498823 L4.5833214,9.62498823 L4.5833214,12.4689262 C4.5833214,12.5028871 4.59160002,12.5363831 4.60752706,12.566762 L5.29502527,13.8792604 C5.37927245,14.0400961 5.62055568,14.0403969 5.70497473,13.8792604 L6.39247294,12.566762 C6.40838087,12.5363832 6.41666779,12.5028887 6.4166786,12.4689262 L6.4166786,9.62498823 L10.3125018,9.62498823 C10.6922013,9.62498823 11,9.33118 11,8.96873903 C11,7.56920559 9.91194815,6.46897647 8.53723818,5.85885612 Z" id="Path"></path>
        </g>
    </g>
</svg>